<svg width="208" height="39" viewBox="0 0 208 39" fill="none" xmlns="http://www.w3.org/2000/svg">
<path d="M64.439 20.2639V18.5773H67.5223V31.6292C67.5223 36.0384 64.6825 38.7456 59.9958 38.7456C57.8991 38.7456 55.602 38.1752 54.122 37.1207L55.2351 34.5276C56.661 35.4303 58.3084 35.9222 59.9958 35.949C62.8664 35.949 64.4482 34.3673 64.4482 31.7618V30.6333C63.3937 31.9807 61.8119 32.6837 59.7738 32.6837C56.5671 32.6837 53.271 29.9889 53.271 25.4471C53.271 20.9053 56.5671 18.2135 59.7738 18.2135C61.8027 18.2135 63.3844 18.9319 64.439 20.2639ZM56.4222 25.4471C56.4222 27.8058 57.9639 29.7977 60.5663 29.7977C63.0329 29.7977 64.7103 27.9076 64.7103 25.4471C64.7103 22.9865 63.0206 21.0964 60.5539 21.0964C57.9639 21.0964 56.413 23.076 56.413 25.4347L56.4222 25.4471Z" fill="#FF712B"/>
<path d="M81.7797 18.6081L81.0459 21.6391C80.3169 21.2996 79.5221 21.1248 78.718 21.1272C76.7693 21.1272 75.3787 22.5055 75.3787 24.892V32.6005H72.3169V18.5773H75.354V20.1591C76.279 18.827 77.7128 18.2134 79.4271 18.2134C80.2296 18.19 81.0289 18.3241 81.7797 18.6081Z" fill="#FF712B"/>
<path d="M98.4017 25.5951C98.4017 29.7977 95.1796 32.9766 90.8444 32.9766C86.5092 32.9766 83.3025 29.7977 83.3025 25.5951C83.3025 21.3924 86.5092 18.2135 90.8444 18.2135C95.1796 18.2135 98.4017 21.3893 98.4017 25.5951ZM86.4506 25.5951C86.4506 28.2468 88.3407 30.0906 90.8444 30.0906C93.3481 30.0906 95.2536 28.2406 95.2536 25.5951C95.2536 22.9495 93.3481 21.0964 90.8444 21.0964C88.3407 21.0964 86.4537 22.9434 86.4537 25.5951H86.4506Z" fill="#FF712B"/>
<path d="M117.288 29.3013L120.6 18.5774H123.791L119.147 32.6098H115.494L112.022 22.0431L108.55 32.619H104.955L100.311 18.5866H103.576L106.872 29.252L110.329 18.5866H113.801L117.288 29.3013Z" fill="#FF712B"/>
<path d="M136.569 21.3617H131.194V27.4698C131.194 29.3599 132.19 30.0907 133.421 30.0907C134.432 30.0335 135.408 29.7043 136.248 29.1379L137.463 31.5861C136.199 32.479 134.693 32.9643 133.146 32.9767C129.97 32.9767 128.108 31.2624 128.108 27.5284V21.3617H125.311V18.5866H128.108V14.3347H131.191V18.5805H136.566L136.569 21.3617Z" fill="#FF712B"/>
<path d="M143.379 20.2485C144.505 18.639 146.234 18.2134 147.656 18.2134C150.995 18.2134 153.354 20.5136 153.354 23.7913V32.6097H150.28V24.818C150.28 22.4592 149.065 21.1427 147.014 21.1427C145.035 21.1427 143.382 22.4469 143.382 24.8427V32.619H140.299V11.5287H143.382L143.379 20.2485Z" fill="#FF712B"/>
<path d="M167.778 19.8847V11.5195H171.586V32.6097H167.855V31.0434C167.346 31.6736 166.697 32.1765 165.959 32.5121C165.222 32.8477 164.416 33.0067 163.606 32.9767C159.696 32.9767 156.74 29.7699 156.74 25.5056C156.74 21.2413 159.693 18.0346 163.603 18.0346C165.509 18.0346 166.856 18.7839 167.778 19.8847ZM160.646 25.4933C160.646 27.6517 162.068 29.4061 164.306 29.4061C166.489 29.4061 167.969 27.7349 167.969 25.4933C167.969 23.2517 166.489 21.5836 164.306 21.5836C162.068 21.5959 160.646 23.338 160.646 25.5056V25.4933Z" fill="#FF712B"/>
<path d="M189.571 32.6097H185.837V31.0434C185.327 31.6736 184.678 32.1765 183.941 32.5121C183.203 32.8477 182.398 33.0067 181.588 32.9767C177.678 32.9767 174.721 29.7699 174.721 25.5056C174.721 21.2413 177.678 18.0346 181.588 18.0346C182.399 18.0047 183.206 18.1654 183.944 18.5038C184.682 18.8422 185.33 19.349 185.837 19.9833V18.4139H189.571V32.6097ZM178.631 25.518C178.631 27.6763 180.052 29.4308 182.291 29.4308C184.474 29.4308 185.954 27.7596 185.954 25.518C185.954 23.2764 184.474 21.6083 182.291 21.6083C180.052 21.5959 178.646 23.338 178.646 25.5056L178.631 25.518Z" fill="#FF712B"/>
<path d="M197.113 38.5268H192.926L197.89 29.585L191.77 18.4078H196.105L199.999 25.7031L203.779 18.4078H207.966L197.113 38.5268Z" fill="#FF712B"/>
<path d="M2.8176 24.3464H0.0703125V27.0659H2.8176V24.3464Z" fill="#FF712B"/>
<path d="M37.1017 24.3464H6.16626V27.0659H37.1017V24.3464Z" fill="#FF712B"/>
<path d="M2.78073 30.0197H0.0334473V32.7393H2.78073V30.0197Z" fill="#FF712B"/>
<path d="M37.0617 30.0197H6.12622V32.7393H37.0617V30.0197Z" fill="#FF712B"/>
<path d="M31.0798 18.4786C30.9992 17.1835 30.7162 15.909 30.2411 14.7015L36.4695 11.0847L35.0697 8.71977L28.9738 12.2903C28.1987 11.1353 27.2357 10.1181 26.1248 9.28094L29.7354 3.2807L27.3951 1.87469L23.7814 7.8811C22.5244 7.30607 21.18 6.94547 19.8039 6.81425V0H17.0782V6.84508C15.7187 7.0075 14.3955 7.39404 13.1623 7.98901L9.46226 1.86236L7.12507 3.27145L10.8251 9.4382C9.79797 10.2475 8.90422 11.2131 8.1765 12.2996L2.12075 8.75369L0.736322 11.1186L6.92465 14.7108C6.45374 15.9159 6.17389 17.1872 6.09522 18.4786H0.0703125V21.1951H37.1016V18.4786H31.0798ZM27.9594 18.4786H9.15084C9.14766 18.4582 9.14766 18.4374 9.15084 18.417C9.20784 17.1628 9.51455 15.9327 10.053 14.7986C10.5915 13.6645 11.3508 12.6493 12.2866 11.8124C12.971 11.2039 13.7395 10.6971 14.5683 10.3077C16.2096 9.5388 18.0378 9.25957 19.8338 9.50348C21.6298 9.74739 23.3173 10.5041 24.6941 11.6829C25.6747 12.5198 26.4725 13.5495 27.038 14.7081C27.6035 15.8666 27.9244 17.1291 27.981 18.417C27.9772 18.4386 27.9699 18.4594 27.9594 18.4786Z" fill="#FF712B"/>
</svg>
