<svg width="322" height="127" viewBox="0 0 322 127" fill="none" xmlns="http://www.w3.org/2000/svg">
<path d="M46.93 61.815C47.7533 61.815 48.3867 62.195 48.83 62.955C49.3367 63.715 49.59 64.76 49.59 66.09C49.59 68.6233 48.9883 70.5867 47.785 71.98C45.0617 75.3367 42.085 78.0917 38.855 80.245C35.625 82.3983 31.92 83.475 27.74 83.475C14.82 83.475 8.36 74.3867 8.36 56.21C8.36 53.4233 8.455 50.605 8.645 47.755H4.94C3.04 47.755 1.74167 47.4067 1.045 46.71C0.411667 46.0133 0.095 44.905 0.095 43.385C0.095 39.8383 1.52 38.065 4.37 38.065H9.785C10.8617 31.0983 12.5083 24.7333 14.725 18.97C16.9417 13.2067 19.6017 8.615 22.705 5.19499C25.8717 1.775 29.26 0.0649976 32.87 0.0649976C35.53 0.0649976 37.62 1.23666 39.14 3.58C40.66 5.92333 41.42 8.86833 41.42 12.415C41.42 22.2317 37.3033 30.7817 29.07 38.065H39.71C40.7233 38.065 41.4517 38.2867 41.895 38.73C42.3383 39.1733 42.56 39.9967 42.56 41.2C42.56 45.57 38.9817 47.755 31.825 47.755H20.235C20.1083 50.9217 20.045 53.3917 20.045 55.165C20.045 61.7517 20.805 66.375 22.325 69.035C23.9083 71.695 26.3783 73.025 29.735 73.025C32.4583 73.025 34.865 72.2017 36.955 70.555C39.045 68.9083 41.515 66.4383 44.365 63.145C45.125 62.2583 45.98 61.815 46.93 61.815ZM30.305 9.185C29.355 9.185 28.2783 10.3883 27.075 12.795C25.935 15.1383 24.8267 18.4317 23.75 22.675C22.7367 26.855 21.8817 31.51 21.185 36.64C24.9217 33.41 27.7083 29.8 29.545 25.81C31.445 21.7567 32.395 18.0833 32.395 14.79C32.395 11.0533 31.6983 9.185 30.305 9.185ZM56.0341 83.475C52.2975 83.475 49.0991 82.5567 46.4391 80.72C43.8425 78.82 41.8791 76.35 40.5491 73.31C39.2191 70.27 38.5541 67.0083 38.5541 63.525C38.5541 58.7117 39.4408 54.4367 41.2141 50.7C43.0508 46.9 45.5208 43.955 48.6241 41.865C51.7275 39.7117 55.2108 38.635 59.0741 38.635C62.8108 38.635 66.0091 39.585 68.6691 41.485C71.3291 43.3217 73.3241 45.76 74.6541 48.8C75.9841 51.84 76.6491 55.1017 76.6491 58.585C76.6491 63.3983 75.7308 67.705 73.8941 71.505C72.0575 75.2417 69.5558 78.1867 66.3891 80.34C63.2858 82.43 59.8341 83.475 56.0341 83.475ZM57.0791 73.215C59.2325 73.215 61.0375 72.0433 62.4941 69.7C64.0141 67.3567 64.7741 63.9367 64.7741 59.44C64.7741 55.9567 64.1408 53.3283 62.8741 51.555C61.6075 49.7817 60.0875 48.895 58.3141 48.895C56.0341 48.895 54.1341 50.0667 52.6141 52.41C51.1575 54.69 50.4291 58.11 50.4291 62.67C50.4291 66.28 51.0625 68.94 52.3291 70.65C53.5958 72.36 55.1791 73.215 57.0791 73.215ZM153.056 62.005C153.879 62.005 154.513 62.4167 154.956 63.24C155.463 64 155.716 64.9817 155.716 66.185C155.716 67.6417 155.494 68.7817 155.051 69.605C154.608 70.4283 153.911 71.1567 152.961 71.79C147.514 75.4633 143.524 78.1867 140.991 79.96L134.911 84.045C132.504 97.155 129.338 107.447 125.411 114.92C121.548 122.457 116.608 126.225 110.591 126.225C107.361 126.225 104.733 125.212 102.706 123.185C100.679 121.222 99.666 118.625 99.666 115.395C99.666 110.898 101.439 106.053 104.986 100.86C108.533 95.73 115.183 89.3967 124.936 81.86L125.506 78.155C124.429 79.865 123.004 81.195 121.231 82.145C119.521 83.0317 117.811 83.475 116.101 83.475C112.174 83.475 109.039 82.05 106.696 79.2C104.353 76.35 103.181 72.6133 103.181 67.99C103.181 62.9233 104.353 58.1417 106.696 53.645C109.039 49.085 112.143 45.4433 116.006 42.72C119.933 39.9333 124.081 38.54 128.451 38.54C129.844 38.54 130.763 38.825 131.206 39.395C131.713 39.9017 132.124 40.8517 132.441 42.245C133.644 41.9917 135.038 41.865 136.621 41.865C138.204 41.865 139.313 42.1183 139.946 42.625C140.643 43.0683 140.991 43.9867 140.991 45.38C140.991 46.14 140.959 46.7417 140.896 47.185C140.643 49.1483 139.851 54.12 138.521 62.1C138.268 63.62 137.983 65.2983 137.666 67.135C137.413 68.9083 137.128 70.8083 136.811 72.835C141.688 69.035 146.374 65.6783 150.871 62.765C151.694 62.2583 152.423 62.005 153.056 62.005ZM119.521 73.88C120.978 73.88 122.371 72.9933 123.701 71.22C125.031 69.4467 125.981 66.9133 126.551 63.62L129.591 47.375C126.994 47.4383 124.588 48.4517 122.371 50.415C120.154 52.315 118.381 54.8483 117.051 58.015C115.721 61.1817 115.056 64.5383 115.056 68.085C115.056 70.0483 115.436 71.505 116.196 72.455C117.019 73.405 118.128 73.88 119.521 73.88ZM111.636 117.01C113.219 117.01 114.993 115.11 116.956 111.31C118.983 107.51 120.914 101.462 122.751 93.165C117.874 97.345 114.359 101.113 112.206 104.47C110.053 107.827 108.976 110.772 108.976 113.305C108.976 114.382 109.166 115.268 109.546 115.965C109.989 116.662 110.686 117.01 111.636 117.01ZM153.724 83.475C151.317 83.475 149.607 82.2083 148.594 79.675C147.644 77.1417 147.169 73.0883 147.169 67.515C147.169 59.2817 148.34 51.46 150.684 44.05C151.254 42.2133 152.172 40.8833 153.439 40.06C154.769 39.1733 156.605 38.73 158.949 38.73C160.215 38.73 161.102 38.8883 161.609 39.205C162.115 39.5217 162.369 40.1233 162.369 41.01C162.369 42.0233 161.894 44.3033 160.944 47.85C160.31 50.3833 159.804 52.6 159.424 54.5C159.044 56.4 158.727 58.7433 158.474 61.53C160.564 56.0833 162.907 51.65 165.504 48.23C168.1 44.81 170.634 42.3717 173.104 40.915C175.637 39.4583 177.949 38.73 180.039 38.73C184.155 38.73 186.214 40.7883 186.214 44.905C186.214 45.7283 185.929 47.7233 185.359 50.89C184.852 53.4233 184.599 55.0067 184.599 55.64C184.599 57.8567 185.39 58.965 186.974 58.965C188.747 58.965 191.027 57.5717 193.814 54.785C194.637 53.9617 195.492 53.55 196.379 53.55C197.202 53.55 197.835 53.93 198.279 54.69C198.785 55.3867 199.039 56.3367 199.039 57.54C199.039 59.8833 198.405 61.72 197.139 63.05C195.365 64.8867 193.275 66.47 190.869 67.8C188.525 69.0667 186.024 69.7 183.364 69.7C180.007 69.7 177.442 68.845 175.669 67.135C173.959 65.425 173.104 63.1133 173.104 60.2C173.104 59.25 173.199 58.3 173.389 57.35C173.515 56.0833 173.579 55.2283 173.579 54.785C173.579 53.7717 173.23 53.265 172.534 53.265C171.584 53.265 170.317 54.3417 168.734 56.495C167.214 58.585 165.694 61.3717 164.174 64.855C162.654 68.3383 161.419 72.0117 160.469 75.875C159.772 78.8517 158.949 80.8783 157.999 81.955C157.112 82.9683 155.687 83.475 153.724 83.475ZM236.785 53.835C237.609 53.835 238.242 54.2467 238.685 55.07C239.129 55.8933 239.35 56.9383 239.35 58.205C239.35 61.245 238.432 63.05 236.595 63.62C232.795 64.95 228.615 65.71 224.055 65.9C222.852 71.22 220.477 75.495 216.93 78.725C213.384 81.8917 209.362 83.475 204.865 83.475C201.065 83.475 197.804 82.5567 195.08 80.72C192.42 78.8833 190.394 76.445 189 73.405C187.607 70.365 186.91 67.0717 186.91 63.525C186.91 58.7117 187.829 54.4367 189.665 50.7C191.502 46.9 194.035 43.955 197.265 41.865C200.495 39.7117 204.074 38.635 208 38.635C212.814 38.635 216.677 40.3133 219.59 43.67C222.567 46.9633 224.309 51.0483 224.815 55.925C227.792 55.735 231.339 55.1017 235.455 54.025C235.962 53.8983 236.405 53.835 236.785 53.835ZM205.625 73.405C207.652 73.405 209.394 72.5817 210.85 70.935C212.37 69.2883 213.384 66.9133 213.89 63.81C211.927 62.48 210.407 60.7383 209.33 58.585C208.317 56.4317 207.81 54.1517 207.81 51.745C207.81 50.7317 207.905 49.7183 208.095 48.705H207.62C205.087 48.705 202.965 49.94 201.255 52.41C199.609 54.8167 198.785 58.2367 198.785 62.67C198.785 66.1533 199.45 68.8133 200.78 70.65C202.174 72.4867 203.789 73.405 205.625 73.405ZM287.154 38.635C290.637 38.635 292.379 39.7433 292.379 41.96C292.379 42.72 292.125 43.765 291.619 45.095C286.489 57.065 281.644 66.7233 277.084 74.07C274.804 77.68 272.745 80.15 270.909 81.48C269.072 82.81 266.982 83.475 264.639 83.475C262.105 83.475 260.205 82.4933 258.939 80.53C257.735 78.5667 256.975 75.3367 256.659 70.84C256.532 69.1933 256.405 66.7233 256.279 63.43C254.315 68.8767 252.51 73.0567 250.864 75.97C249.28 78.82 247.697 80.7833 246.114 81.86C244.594 82.9367 242.757 83.475 240.604 83.475C238.007 83.475 235.949 82.4617 234.429 80.435C232.972 78.4083 232.054 75.21 231.674 70.84C230.914 61.9733 230.534 54.215 230.534 47.565V44.24C230.597 42.0867 231.135 40.63 232.149 39.87C233.162 39.0467 234.809 38.635 237.089 38.635C238.735 38.635 239.939 39.015 240.699 39.775C241.522 40.4717 241.934 41.675 241.934 43.385C241.934 50.6683 242.377 60.1367 243.264 71.79C245.354 67.3567 247.285 63.1133 249.059 59.06C250.832 55.0067 252.89 49.8133 255.234 43.48C255.93 41.58 256.754 40.3133 257.704 39.68C258.717 38.9833 259.889 38.635 261.219 38.635C262.992 38.635 264.322 39.015 265.209 39.775C266.095 40.4717 266.539 41.675 266.539 43.385V58.11C266.539 64.4433 266.57 69.0033 266.634 71.79C269.547 66.7233 271.922 62.3217 273.759 58.585C275.659 54.8483 277.78 49.8133 280.124 43.48C280.82 41.58 281.739 40.3133 282.879 39.68C284.019 38.9833 285.444 38.635 287.154 38.635ZM302.284 60.77C301.018 60.77 299.973 60.485 299.149 59.915C298.326 59.345 297.914 58.4583 297.914 57.255L298.009 56.495C299.086 49.4017 300.543 41.3267 302.379 32.27C304.216 23.2133 305.926 15.3917 307.509 8.805C308.523 4.75166 311.278 2.725 315.774 2.725C319.828 2.725 321.854 4.02333 321.854 6.62C321.854 7.19 321.759 7.82333 321.569 8.52C319.923 15.2333 317.738 23.3717 315.014 32.935C312.291 42.435 309.694 50.7 307.224 57.73C306.528 59.7567 304.881 60.77 302.284 60.77ZM298.674 83.475C295.888 83.475 293.766 82.715 292.309 81.195C290.916 79.675 290.219 77.68 290.219 75.21C290.219 72.36 291.011 70.08 292.594 68.37C294.241 66.66 296.521 65.805 299.434 65.805C302.221 65.805 304.311 66.5017 305.704 67.895C307.161 69.225 307.889 71.22 307.889 73.88C307.889 76.7933 307.066 79.1367 305.419 80.91C303.773 82.62 301.524 83.475 298.674 83.475Z" fill="#FF712B"/>
</svg>
